<?xml version="1.0" encoding="utf-8"?>
<!-- Generator: Adobe Illustrator 24.2.3, SVG Export Plug-In . SVG Version: 6.00 Build 0)  -->
<svg version="1.1" id="Layer_1" xmlns="http://www.w3.org/2000/svg" xmlns:xlink="http://www.w3.org/1999/xlink" x="0px" y="0px"
	 viewBox="0 0 1920 1080" style="enable-background:new 0 0 1920 1080;" xml:space="preserve">
<style type="text/css">
	.st0{fill:#27AAE1;}
	.st1{fill:#FFFFFF;}
	.st2{fill:#92278F;}
	.st3{fill:#00AEEF;}
</style>
<g>
	<path class="st0" d="M677.23,924.03c0,2.7-0.83,4.05-2.5,4.05h-19.8c-1.67,0-6-6.11-13-18.33c-5.91-10.33-9.84-17.79-11.79-22.38
		c-1.95-4.42-3.07-6.89-3.36-7.4c-1.72-2.87-3.73-4.39-6.03-4.56c-0.69-0.06-2.61-0.09-5.77-0.09c-7.23,0-10.85,0.89-10.85,2.67
		c0,5.28,0.19,13.17,0.56,23.67c0.37,10.5,0.56,18.36,0.56,23.58c0,1.89-0.72,2.84-2.15,2.84c-1.09,0-2.73-0.09-4.91-0.26
		c-2.18-0.17-3.82-0.26-4.91-0.26c-1.03,0-2.57,0.09-4.6,0.26c-2.04,0.17-3.57,0.26-4.61,0.26c-1.43,0-2.15-0.66-2.15-1.98
		c0-6.31,0.3-15.79,0.9-28.45c0.6-12.65,0.9-22.13,0.9-28.45c0-6.66-0.3-16.66-0.9-30c-0.6-13.34-0.9-23.34-0.9-30
		c0-1.26,0.72-1.89,2.15-1.89c1.03,0,2.61,0.09,4.73,0.26c2.12,0.17,3.73,0.26,4.82,0.26c1.03,0,2.58-0.09,4.65-0.26
		c2.07-0.17,3.62-0.26,4.65-0.26c1.32,0,1.98,0.52,1.98,1.55c0,4.88-0.16,12.22-0.47,22.04c-0.32,9.81-0.47,17.19-0.47,22.12
		c0,2.24,0.14,3.64,0.43,4.22c0.46,1.03,1.64,1.55,3.53,1.55c11.13,0,19.28-2.07,24.45-6.2c4.42-3.67,8.61-10.42,12.57-20.23
		c2.87-7.69,5.74-15.38,8.61-23.07c0.4-0.98,1.29-1.64,2.67-1.98c0.92-0.23,3.96-0.34,9.12-0.34c6.31,0,9.47,0.89,9.47,2.67
		c0,1.03-1.32,5.68-3.96,13.94c-3.1,9.64-7.12,18.13-12.05,25.48c-3.27,4.99-7.6,10.01-13,15.06c-1.38,1.21-2.07,2.3-2.07,3.27
		c0,1.03,2.32,6.17,6.97,15.41c4.02,7.98,7.66,14.37,10.93,19.19c3.62,4.42,8.66,11.22,15.15,20.4
		C677.09,922.91,677.23,923.46,677.23,924.03z"/>
	<path class="st0" d="M785.69,809.21c0,6.66-0.27,16.63-0.82,29.91c-0.55,13.29-0.82,23.25-0.82,29.91c0,2.18,0.03,5.44,0.09,9.77
		c0.06,4.33,0.09,7.56,0.09,9.68c0,11.99-1.12,20.31-3.36,24.96c-3.44,7.12-10.13,11.94-20.06,14.46
		c-6.08,1.55-14.66,2.32-25.74,2.32c-20.09,0-33.25-3.33-39.51-9.99c-4.82-5.16-7.23-15.49-7.23-30.99c0-1.89,0.03-5.09,0.09-9.6
		c0.06-4.5,0.09-8.05,0.09-10.63c0-6.77-0.29-19.25-0.86-37.44c0-4.7-0.26-11.73-0.77-21.09c-0.06-0.69-0.09-1.15-0.09-1.38
		c0-1.2,0.75-1.81,2.24-1.81c2.35,0,5.54,0.03,9.55,0.09c4.65,0.06,7.8,0.09,9.47,0.09c1.32,0,1.98,0.52,1.98,1.55
		c0,8.72-0.19,21.83-0.56,39.34c-0.37,17.5-0.56,30.61-0.56,39.34c0,9.87,2.21,16.56,6.63,20.06c3.79,3.1,10.76,4.65,20.92,4.65
		c9.24,0,15.81-1.26,19.71-3.79c4.93-3.16,7.4-9.07,7.4-17.73c0-9.07-0.14-22.68-0.43-40.84c-0.29-18.16-0.43-31.78-0.43-40.84
		c0-0.92,0.83-1.49,2.5-1.72c1.2-0.17,2.93-0.17,5.16,0c2.64,0.23,3.9,0.34,3.79,0.34c1.03,0,2.6-0.09,4.69-0.26
		c2.09-0.17,3.66-0.26,4.69-0.26C784.97,807.31,785.69,807.95,785.69,809.21z"/>
	<path class="st0" d="M909.38,867.05c0,16.13-4.59,30.07-13.77,41.83c-9.98,12.8-22.78,19.2-38.39,19.2
		c-2.98,0-7.48-0.11-13.47-0.34c-6-0.23-10.49-0.34-13.47-0.34c-2.7,0-6.76,0.12-12.18,0.34c-5.42,0.23-9.48,0.34-12.18,0.34
		c-1.43,0-2.15-0.72-2.15-2.15c0-6.25,0.24-15.69,0.73-28.32c0.49-12.62,0.73-22.09,0.73-28.41c0-6.66-0.23-16.67-0.69-30.04
		c-0.46-13.37-0.69-23.38-0.69-30.04c0-1.2,0.75-1.81,2.24-1.81c2.12,0,5.29,0.03,9.51,0.09c4.22,0.06,7.39,0.09,9.51,0.09
		c1.95,0,4.93-0.03,8.95-0.09c4.02-0.06,7.06-0.09,9.12-0.09c19.91,0,34.75,3.76,44.5,11.28c7,5.39,12.42,12.65,16.27,21.78
		C907.57,848.86,909.38,857.75,909.38,867.05z M888.29,867.05c0-12.4-3.53-22.49-10.59-30.3c-7.35-8.09-17.16-12.14-29.44-12.14
		c-10.16,0-14.26-0.06-12.31-0.17c-6.71,0.34-10.07,1.58-10.07,3.7c0,4.42-0.1,11.03-0.3,19.84c-0.2,8.81-0.3,15.42-0.3,19.84
		c0,4.36,0.1,10.9,0.3,19.63c0.2,8.72,0.3,15.27,0.3,19.63c0,2.18,3.44,3.44,10.33,3.79c-0.92-0.06,3.27-0.09,12.57-0.09
		c6.6,0,11.85-0.69,15.75-2.07c4.82-1.72,9.15-4.91,13-9.55C884.7,890.43,888.29,879.73,888.29,867.05z"/>
	<path class="st0" d="M998.38,908.37c0,2.01-0.37,5.08-1.12,9.21c-0.75,4.13-1.12,7.23-1.12,9.3c0,1.26-0.69,1.89-2.06,1.89
		c-3.44,0-8.56-0.12-15.37-0.34c-6.8-0.23-11.92-0.34-15.36-0.34h-40.89c-1.61,0-2.55-0.57-2.84-1.72
		c-1.26-6.43-1.89-11.22-1.89-14.37c0-0.63,8.74-14.68,26.21-42.13c17.47-27.46,26.21-41.88,26.21-43.25c0-0.63-0.72-0.95-2.15-0.95
		h-45.88c-1.15,0-1.72-0.57-1.72-1.72c0-0.46,0.42-3.07,1.25-7.83c0.83-4.76,1.35-7.53,1.55-8.31c0.2-0.77,0.87-1.16,2.02-1.16
		c2.24,0,5.55,0.2,9.94,0.6c4.39,0.4,7.67,0.6,9.86,0.6h48.37c1.03,0,1.66,0.49,1.89,1.46c0.86,3.5,1.29,7.78,1.29,12.83
		c0,0.34-9.08,14.78-27.24,43.3c-18.16,28.52-27.27,43.21-27.33,44.07c0.29,0.4,0.83,0.6,1.64,0.6c16.64,0,29.38-0.34,38.22-1.03
		c1.15-0.11,3.73-0.43,7.75-0.95c3.27-0.46,5.82-0.69,7.66-0.69C998.01,907.42,998.38,907.74,998.38,908.37z"/>
	<path class="st0" d="M1126.03,867.65c0,17.04-5.45,31.71-16.35,43.98c-11.36,12.74-25.48,19.11-42.35,19.11
		c-16.93,0-31.04-6.34-42.35-19.02c-10.9-12.22-16.35-26.91-16.35-44.07c0-16.99,5.51-31.65,16.53-43.99
		c11.36-12.79,25.42-19.19,42.18-19.19c16.81,0,30.9,6.4,42.26,19.19C1120.55,835.95,1126.03,850.61,1126.03,867.65z
		 M1105.29,867.39c0-11.25-3.5-21.03-10.5-29.35c-7.35-8.84-16.55-13.26-27.63-13.26c-10.96,0-20.09,4.48-27.37,13.43
		c-6.88,8.38-10.33,18.19-10.33,29.44c0,11.19,3.44,20.97,10.33,29.35c7.29,8.95,16.41,13.43,27.37,13.43
		c11.13,0,20.37-4.48,27.71-13.43C1101.81,888.63,1105.29,878.76,1105.29,867.39z"/>
	<path class="st0" d="M1235.43,924.03c0,2.7-0.83,4.05-2.5,4.05h-19.8c-1.67,0-6-6.11-13-18.33c-5.91-10.33-9.84-17.79-11.79-22.38
		c-1.95-4.42-3.07-6.89-3.36-7.4c-1.72-2.87-3.73-4.39-6.03-4.56c-0.69-0.06-2.61-0.09-5.77-0.09c-7.23,0-10.85,0.89-10.85,2.67
		c0,5.28,0.19,13.17,0.56,23.67c0.37,10.5,0.56,18.36,0.56,23.58c0,1.89-0.72,2.84-2.15,2.84c-1.09,0-2.73-0.09-4.91-0.26
		c-2.18-0.17-3.82-0.26-4.91-0.26c-1.03,0-2.57,0.09-4.61,0.26c-2.04,0.17-3.57,0.26-4.61,0.26c-1.43,0-2.15-0.66-2.15-1.98
		c0-6.31,0.3-15.79,0.9-28.45c0.6-12.65,0.9-22.13,0.9-28.45c0-6.66-0.3-16.66-0.9-30c-0.6-13.34-0.9-23.34-0.9-30
		c0-1.26,0.72-1.89,2.15-1.89c1.03,0,2.61,0.09,4.73,0.26c2.12,0.17,3.73,0.26,4.82,0.26c1.03,0,2.58-0.09,4.65-0.26
		c2.07-0.17,3.62-0.26,4.65-0.26c1.32,0,1.98,0.52,1.98,1.55c0,4.88-0.16,12.22-0.47,22.04c-0.32,9.81-0.47,17.19-0.47,22.12
		c0,2.24,0.14,3.64,0.43,4.22c0.46,1.03,1.63,1.55,3.53,1.55c11.13,0,19.28-2.07,24.45-6.2c4.42-3.67,8.61-10.42,12.57-20.23
		c2.87-7.69,5.74-15.38,8.61-23.07c0.4-0.98,1.29-1.64,2.67-1.98c0.92-0.23,3.96-0.34,9.12-0.34c6.31,0,9.47,0.89,9.47,2.67
		c0,1.03-1.32,5.68-3.96,13.94c-3.1,9.64-7.12,18.13-12.05,25.48c-3.27,4.99-7.61,10.01-13,15.06c-1.38,1.21-2.07,2.3-2.07,3.27
		c0,1.03,2.32,6.17,6.97,15.41c4.02,7.98,7.66,14.37,10.93,19.19c3.62,4.42,8.66,11.22,15.15,20.4
		C1235.29,922.91,1235.43,923.46,1235.43,924.03z"/>
	<path class="st0" d="M1351.72,927.04c0,0.69-0.69,1.03-2.07,1.03c-1.09,0-2.68-0.09-4.78-0.26c-2.1-0.17-3.69-0.26-4.78-0.26
		c-1.09,0-2.73,0.09-4.91,0.26c-2.18,0.17-3.82,0.26-4.91,0.26c-1.61,0-3.66-4.35-6.15-13.04c-2.5-8.69-5.04-13.1-7.62-13.21
		c-2.13-0.11-7.66-0.17-16.61-0.17h-13.6c-9.47,0-14.86,0.06-16.18,0.17c-2.07,0.17-4.26,4.59-6.59,13.26
		c-2.32,8.67-4.12,13-5.38,13h-19.37c-1.15,0-1.72-0.4-1.72-1.21c0-0.57,0.4-1.86,1.2-3.87l21.09-57.67
		c1.78-4.65,7.17-18.05,16.18-40.2c1.61-3.67,3.79-9.21,6.54-16.61c0.69-2.18,1.43-3.27,2.24-3.27c1.09,0,2.7,0.14,4.82,0.43
		c2.12,0.29,3.73,0.43,4.82,0.43c1.03,0,2.6-0.16,4.69-0.47c2.09-0.31,3.63-0.47,4.61-0.47c0.52,0,1.23,1.06,2.15,3.18
		c1.38,3.21,8.18,20.52,20.4,51.9C1343.08,904.38,1351.72,926.64,1351.72,927.04z M1311.61,879.53c0-1.66-2.58-9.12-7.75-22.38
		c-4.99-12.85-8.52-21.29-10.59-25.31c-11.88,30.3-17.82,46.17-17.82,47.6c0,1.95,2.18,3.1,6.54,3.44c0.23,0.06,3.04,0.09,8.44,0.09
		h8.87C1307.51,882.97,1311.61,881.83,1311.61,879.53z"/>
</g>
<g>
	<g>
		<g>
			
				<ellipse transform="matrix(0.7071 -0.7071 0.7071 0.7071 -37.4354 810.7958)" class="st1" cx="960" cy="450.59" rx="284.89" ry="284.89"/>
		</g>
		<g>
			<path class="st2" d="M960.06,742.64c-0.02,0-0.04,0-0.06,0h-0.38v-14.33H960c0.02,0,0.04,0,0.06,0c4.42,0,8.9-0.11,13.32-0.32
				l0.68,14.32C969.41,742.53,964.7,742.64,960.06,742.64z M946.27,742.33c-4.8-0.22-9.65-0.57-14.41-1.02l1.36-14.27
				c4.53,0.43,9.14,0.76,13.71,0.97L946.27,742.33z M987.36,741.38l-1.33-14.27c4.55-0.42,9.14-0.97,13.65-1.61l2.03,14.19
				C996.97,740.36,992.14,740.93,987.36,741.38z M918.62,739.73c-4.75-0.67-9.54-1.48-14.25-2.38l2.71-14.07
				c4.48,0.86,9.04,1.63,13.56,2.27L918.62,739.73z M1014.87,737.5l-2.68-14.08c4.48-0.85,9-1.83,13.43-2.9l3.37,13.93
				C1024.33,735.57,1019.58,736.6,1014.87,737.5z M891.32,734.52c-4.66-1.12-9.36-2.38-13.96-3.74l4.05-13.75
				c4.38,1.29,8.85,2.48,13.27,3.55L891.32,734.52z M1041.89,731.01l-4.01-13.76c4.37-1.28,8.78-2.68,13.09-4.17l4.69,13.54
				C1051.13,728.19,1046.49,729.66,1041.89,731.01z M864.65,726.72c-4.55-1.57-9.12-3.28-13.57-5.07l5.35-13.3
				c4.23,1.7,8.58,3.33,12.9,4.82L864.65,726.72z M1068.16,721.96l-5.31-13.31c4.22-1.68,8.46-3.5,12.6-5.39l5.96,13.03
				C1077.06,718.28,1072.6,720.19,1068.16,721.96z M838.79,716.38c-4.37-2-8.75-4.13-13.02-6.34l6.6-12.72
				c4.05,2.1,8.22,4.13,12.37,6.03L838.79,716.38z M1093.41,710.46l-6.56-12.74c4.05-2.08,8.1-4.3,12.04-6.58l7.18,12.4
				C1101.93,705.94,1097.67,708.27,1093.41,710.46z M814.05,703.62c-4.17-2.41-8.32-4.95-12.34-7.55l7.78-12.04
				c3.82,2.47,7.77,4.89,11.74,7.18L814.05,703.62z M1117.45,696.61l-7.74-12.06c3.83-2.46,7.66-5.05,11.37-7.7l8.32,11.67
				C1125.5,691.3,1121.48,694.03,1117.45,696.61z M790.66,688.57c-3.91-2.79-7.8-5.71-11.57-8.68l8.89-11.24
				c3.58,2.83,7.28,5.61,11,8.26L790.66,688.57z M1140.08,680.53l-8.84-11.28c3.58-2.81,7.15-5.75,10.6-8.74l9.39,10.83
				C1147.6,674.48,1143.85,677.58,1140.08,680.53z M768.82,671.38c-3.63-3.14-7.22-6.42-10.69-9.73l9.91-10.35
				c3.29,3.15,6.71,6.27,10.16,9.26L768.82,671.38z M1161.1,662.38l-9.87-10.39c3.31-3.15,6.59-6.41,9.73-9.71l10.37,9.89
				C1168.03,655.64,1164.58,659.07,1161.1,662.38z M748.7,652.21c-3.31-3.47-6.58-7.07-9.72-10.7l10.84-9.37
				c2.98,3.45,6.09,6.87,9.24,10.17L748.7,652.21z M1180.32,642.31l-10.81-9.41c3-3.45,5.96-7.01,8.77-10.59l11.26,8.87
				C1186.58,634.94,1183.48,638.68,1180.32,642.31z M730.5,631.23c-2.97-3.77-5.88-7.66-8.66-11.56l11.68-8.3
				c2.64,3.71,5.41,7.41,8.23,10.99L730.5,631.23z M1197.57,620.5l-11.65-8.35c2.67-3.72,5.27-7.55,7.73-11.38l12.05,7.76
				C1203.1,612.57,1200.37,616.59,1197.57,620.5z M714.36,608.64c-2.6-4.03-5.13-8.17-7.52-12.32l12.41-7.16
				c2.28,3.95,4.68,7.89,7.15,11.72L714.36,608.64z M1212.67,597.15l-12.39-7.2c2.3-3.95,4.53-8.01,6.62-12.07l12.73,6.58
				C1217.43,588.72,1215.09,592.99,1212.67,597.15z M700.45,584.63c-2.2-4.26-4.33-8.62-6.31-12.98l13.04-5.95
				c1.89,4.14,3.91,8.29,6,12.34L700.45,584.63z M1225.49,572.45l-13.02-5.99c1.91-4.15,3.74-8.4,5.44-12.65l13.3,5.33
				C1229.42,563.61,1227.5,568.09,1225.49,572.45z M688.9,559.42c-1.79-4.45-3.49-9.01-5.05-13.54l13.55-4.67
				c1.49,4.31,3.1,8.64,4.8,12.87L688.9,559.42z M1235.9,546.62l-13.54-4.71c1.5-4.31,2.91-8.72,4.19-13.09l13.75,4.03
				C1238.96,537.45,1237.48,542.08,1235.9,546.62z M679.78,533.16c-1.35-4.6-2.61-9.3-3.73-13.96l13.93-3.36
				c1.07,4.44,2.26,8.9,3.55,13.27L679.78,533.16z M1243.77,519.96l-13.92-3.39c1.08-4.42,2.06-8.94,2.92-13.43l14.08,2.69
				C1245.93,510.56,1244.9,515.31,1243.77,519.96z M673.23,506.16c-0.91-4.71-1.71-9.5-2.38-14.26l14.19-2.01
				c0.64,4.52,1.4,9.08,2.26,13.55L673.23,506.16z M1249.04,492.68l-14.19-2.05c0.65-4.52,1.2-9.11,1.63-13.65l14.27,1.35
				C1250.31,483.1,1249.73,487.93,1249.04,492.68z M669.28,478.66c-0.45-4.77-0.8-9.62-1.02-14.41l14.32-0.66
				c0.21,4.56,0.54,9.17,0.97,13.71L669.28,478.66z M1251.71,465.03l-14.31-0.69c0.22-4.56,0.33-9.18,0.33-13.75v-0.62h14.33v0.62
				C1252.06,455.38,1251.94,460.24,1251.71,465.03z M682.28,450.9h-14.33v-0.31c0-4.69,0.11-9.44,0.34-14.12l14.32,0.68
				c-0.21,4.45-0.32,8.97-0.32,13.44V450.9z M1237.41,437.29c-0.22-4.57-0.55-9.18-0.98-13.71l14.27-1.38
				c0.46,4.76,0.81,9.61,1.03,14.41L1237.41,437.29z M683.48,424.49l-14.27-1.33c0.45-4.78,1.02-9.6,1.69-14.35l14.19,2.03
				C684.45,415.36,683.91,419.95,683.48,424.49z M1234.92,410.98c-0.65-4.52-1.41-9.08-2.28-13.55l14.07-2.73
				c0.91,4.71,1.72,9.5,2.4,14.25L1234.92,410.98z M687.18,398.33l-14.08-2.68c0.9-4.72,1.93-9.47,3.06-14.13l13.93,3.38
				C689.01,389.32,688.04,393.84,687.18,398.33z M1229.95,385.04c-1.07-4.43-2.27-8.9-3.56-13.27l13.74-4.06
				c1.36,4.6,2.62,9.3,3.75,13.96L1229.95,385.04z M693.36,372.65l-13.76-4.01c1.34-4.6,2.82-9.24,4.39-13.77l13.54,4.7
				C696.04,363.87,694.64,368.27,693.36,372.65z M1222.51,359.69c-1.5-4.32-3.12-8.65-4.82-12.87l13.29-5.36
				c1.79,4.44,3.5,9,5.07,13.54L1222.51,359.69z M701.98,347.64l-13.31-5.32c1.78-4.46,3.7-8.94,5.7-13.31l13.03,5.97
				C705.49,339.15,703.67,343.4,701.98,347.64z M1212.69,335.19c-1.89-4.14-3.92-8.29-6.01-12.33l12.72-6.6
				c2.21,4.25,4.33,8.61,6.33,12.97L1212.69,335.19z M712.96,323.56L700.22,317c2.2-4.27,4.54-8.54,6.95-12.7l12.4,7.19
				C717.27,315.44,715.05,319.5,712.96,323.56z M1200.59,311.76c-2.28-3.94-4.69-7.88-7.17-11.71l12.04-7.78
				c2.6,4.03,5.14,8.17,7.53,12.31L1200.59,311.76z M726.19,300.65l-12.06-7.75c2.59-4.04,5.33-8.06,8.12-11.97l11.66,8.33
				C731.25,292.98,728.65,296.81,726.19,300.65z M1186.31,289.56c-2.65-3.72-5.42-7.41-8.25-10.99l11.25-8.88
				c2.97,3.76,5.89,7.64,8.67,11.55L1186.31,289.56z M741.52,279.1l-11.27-8.86c2.96-3.77,6.06-7.52,9.21-11.14l10.82,9.4
				C747.29,271.95,744.34,275.52,741.52,279.1z M1169.98,268.81c-2.99-3.45-6.11-6.87-9.25-10.16l10.36-9.91
				c3.31,3.46,6.58,7.05,9.73,10.68L1169.98,268.81z M758.83,259.12l-10.38-9.88c3.31-3.48,6.75-6.92,10.22-10.22l9.88,10.38
				C765.25,252.54,761.98,255.81,758.83,259.12z M1151.75,249.68c-3.31-3.16-6.73-6.27-10.18-9.25l9.38-10.84
				c3.62,3.13,7.22,6.4,10.7,9.72L1151.75,249.68z M777.93,240.86l-9.4-10.82c3.62-3.14,7.36-6.24,11.13-9.2l8.86,11.27
				C784.93,234.93,781.37,237.87,777.93,240.86z M1131.78,232.35c-3.59-2.83-7.3-5.61-11.01-8.25l8.31-11.68
				c3.9,2.77,7.8,5.69,11.57,8.67L1131.78,232.35z M798.67,224.5l-8.33-11.66c3.9-2.79,7.92-5.52,11.95-8.1l7.75,12.06
				C806.2,219.25,802.38,221.85,798.67,224.5z M1110.26,216.98c-3.84-2.47-7.79-4.88-11.75-7.17l7.16-12.42
				c4.16,2.4,8.32,4.93,12.35,7.53L1110.26,216.98z M820.84,210.19l-7.19-12.4c4.15-2.41,8.41-4.74,12.66-6.93l6.57,12.74
				C828.84,205.68,824.79,207.9,820.84,210.19z M1087.36,203.72c-4.07-2.1-8.23-4.13-12.38-6.02l5.94-13.04
				c4.36,1.99,8.75,4.12,13.02,6.33L1087.36,203.72z M844.26,198.05l-5.98-13.03c4.35-2,8.81-3.91,13.25-5.69l5.33,13.31
				C852.64,194.33,848.4,196.15,844.26,198.05z M1063.3,192.71c-4.24-1.7-8.58-3.32-12.91-4.8l4.66-13.55
				c4.55,1.56,9.11,3.26,13.58,5.05L1063.3,192.71z M868.74,188.2l-4.71-13.54c4.53-1.58,9.17-3.06,13.77-4.41l4.03,13.75
				C877.46,185.29,873.06,186.7,868.74,188.2z M1038.31,184.05c-4.38-1.28-8.85-2.47-13.28-3.54l3.34-13.94
				c4.66,1.12,9.36,2.37,13.97,3.72L1038.31,184.05z M894.08,180.73l-3.39-13.93c4.65-1.13,9.4-2.16,14.12-3.07l2.69,14.08
				C903.02,178.67,898.51,179.65,894.08,180.73z M1012.63,177.84c-4.47-0.86-9.03-1.62-13.55-2.25l2-14.19
				c4.76,0.67,9.55,1.47,14.26,2.37L1012.63,177.84z M920.02,175.72l-2.04-14.19c4.74-0.68,9.57-1.26,14.35-1.71l1.34,14.27
				C929.12,174.52,924.53,175.07,920.02,175.72z M986.47,174.11c-4.54-0.43-9.15-0.75-13.71-0.96l0.65-14.32
				c4.79,0.22,9.64,0.56,14.41,1.01L986.47,174.11z M946.32,173.19l-0.69-14.32c4.75-0.23,9.59-0.35,14.37-0.35l0.08,7.17v7.17
				C955.45,172.86,950.85,172.97,946.32,173.19z"/>
		</g>
	</g>
	<g>
		<g>
			<path class="st3" d="M1023.54,256.99c-12.01,0-27.4-0.88-46.15-2.64l-2.86,12.31c13.92,0.3,22.38,0.92,25.38,1.87
				c3,0.96,4.51,2.01,4.51,3.19c0,1.03-0.52,2.27-1.54,3.74c-3.38,4.4-17.31,16.85-41.8,37.36c-13.35,11.14-27.25,21.65-41.69,31.54
				c-14.45,9.89-27.1,16.89-37.95,20.99l17.5-66.64c2.49-9.36,7.76-24.5,15.82-45.43h-14.26c-8.83,0-15.13,0.13-23.04,0.64
				c0-0.02,0-0.04,0,0c-0.69,4.23-2.44,8.54-3.08,12.76c-0.16,0.01-0.32,0.02,0,0L847.56,368.4
				c-12.46,47.61-22.58,83.28-30.35,107.01c-3.35,10.55-7.88,18.28-13.56,23.18c-5.69,4.91-15.53,8.76-29.52,11.54l-1.32,10.55
				c26.32-4.69,45.55-7.03,57.69-7.03c5.99,0,13.68,0.51,23.04,1.54c8.92,1.02,15.79,1.54,20.62,1.54c0.73,0,2.56-0.08,5.48-0.22
				l2.86-10.99c-3.52,0.3-6.23,0.44-8.14,0.44c-7.92,0-16.86-2.12-26.83-6.37c1.17-7.77,4.11-20.66,8.8-38.68l23.32-89.01
				c9.68,12.31,17.23,23.99,22.65,35.05c5.42,11.06,13.12,31.54,23.09,61.42c10.7,31.65,21.19,55.01,31.45,70.11
				c10.26,15.09,21.59,26.15,33.98,33.18c5.47,3.11,11.09,5.51,16.84,7.24c0.67-0.84,1.64-1.45,2.92-1.64
				c-0.18-2.63,1.42-5.4,4.81-5.4c0.18,0,0.35,0.01,0.52,0.03c-0.13-2.19,0.96-4.46,3.3-5.15c-8.2-2.9-16.31-8.58-24.32-17.06
				c-12.18-12.89-24.13-37.72-35.86-74.49c-13.05-41.16-22.22-67.46-27.5-78.89c-5.28-11.43-11.66-21.75-19.14-30.98
				c25.97-16.41,56.5-39.92,91.57-70.54c13.19-11.57,23.66-19.56,31.42-23.95c7.76-4.4,17.58-8.06,29.45-10.99l1.32-5.49
				C1050.05,256.11,1035.85,256.99,1023.54,256.99z"/>
		</g>
		<g>
			<path class="st3" d="M1097.48,483.66c-12.85,3.26-24.65,4.89-35.38,4.89c-5.93,0-12.5-0.32-19.7-0.98
				c-10.03-1.04-16.73-1.56-20.13-1.56c-4.23,0-7.49,0.91-9.74,2.73c-2.26,1.83-3.39,4.17-3.39,7.04c0,4.43,2.54,6.84,7.63,7.23
				c6.36,0.65,9.54,3.32,9.54,8.01c0,2.22-0.99,4.2-2.97,5.96c-1.98,1.76-4.24,2.64-6.78,2.64c-5.08,0-9.78-2.31-14.09-6.94
				c-4.31-4.62-6.46-10.39-6.46-17.3c0-8.86,4.03-16.48,12.08-22.87c8.05-6.38,18.01-9.58,29.87-9.58c6.21,0,14.62,0.78,25.21,2.35
				c17.09,2.48,29.37,3.71,36.86,3.71c7.63,0,14.76-2.35,21.4-7.04c3.1-2.08,5.65-3.13,7.63-3.13c1.69,0,3.14,0.49,4.34,1.47
				c1.2,0.98,1.8,1.92,1.8,2.84c0,1.31-0.78,2.74-2.33,4.31c-4.8,5.47-15.75,15.75-32.84,30.85l-65.67,58
				c-19.21,16.93-35.17,30.59-47.88,41.01c8.05-0.84,14.33-1.26,18.85-1.26c6.35,0,12.14,0.49,17.37,1.47
				c5.22,0.98,13.63,3.23,25.21,6.74c15.11,4.82,27.4,7.23,36.86,7.23c5.93,0,10.48-1.27,13.66-3.81c3.18-2.54,4.77-5.76,4.77-9.67
				c0-2.21-1.13-5.34-3.39-9.38c-1.98-3.91-2.96-6.9-2.96-8.99c0-3.13,1.13-5.79,3.39-8.01c2.26-2.21,5.08-3.32,8.47-3.32
				c4.09,0,7.52,1.54,10.27,4.61c2.76,3.07,4.13,7.02,4.13,11.86c0,7.32-2.89,15-8.69,23.04c-5.79,8.04-13.06,14.22-21.82,18.53
				c-8.76,4.31-19.56,6.47-32.41,6.47c-10.59,0-26.06-2.81-46.4-8.44c-16.95-4.58-29.37-6.87-37.28-6.87
				c-4.8,0-10.38,2.32-16.74,6.96c-3.67,2.96-6.85,4.44-9.53,4.44c-5.22,0-7.84-1.18-7.84-3.56c0-2.24,1.48-4.95,4.45-8.11
				c7.91-8.59,27.96-26.36,60.16-53.31c21.75-18.23,40.81-34.82,57.2-49.79L1097.48,483.66z"/>
		</g>
	</g>
	<g>
		<path class="st3" d="M851.6,256.22c0,0,69.49,1.74,86.04,0v-6.71c0,0-67.01,2.48-86.04,0V256.22z"/>
	</g>
</g>
</svg>
